<svg width="34" height="34" viewBox="0 0 34 34" fill="none" xmlns="http://www.w3.org/2000/svg">
<path d="M9.31274 12.9358L6.68381 15.4848C5.60568 16.5301 5 17.9478 5 19.4261C5 20.9044 5.60568 22.3221 6.68381 23.3674C7.76193 24.4128 9.22418 25 10.7489 25C12.2736 25 13.7358 24.4128 14.8139 23.3674L18.3166 19.9695C18.9668 19.3391 19.4514 18.5666 19.7299 17.717C20.0085 16.8674 20.0727 15.9654 19.9173 15.0867C19.7619 14.208 19.3913 13.3783 18.8367 12.6672C18.2821 11.9561 17.5597 11.3844 16.7301 11L15.6072 12.0887C15.4932 12.1994 15.3941 12.3236 15.3121 12.4584C15.9531 12.637 16.5349 12.9748 17 13.4383C17.4651 13.9018 17.7974 14.4749 17.9641 15.1011C18.1307 15.7272 18.1259 16.3847 17.9501 17.0085C17.7744 17.6323 17.4337 18.2008 16.9619 18.6579L13.4612 22.054C12.7421 22.7512 11.7668 23.1429 10.7498 23.1429C9.73289 23.1429 8.7576 22.7512 8.03851 22.054C7.31942 21.3568 6.91544 20.4112 6.91544 19.4252C6.91544 18.4392 7.31942 17.4936 8.03851 16.7964L9.558 15.325C9.34361 14.5461 9.26079 13.7386 9.31274 12.934V12.9358Z" fill="#333333"/>
<path d="M12.6834 9.0293C12.0332 9.65982 11.5486 10.4324 11.2701 11.2821C10.9915 12.1318 10.9273 13.034 11.0827 13.9128C11.2381 14.7916 11.6087 15.6214 12.1633 16.3326C12.7179 17.0438 13.4403 17.6156 14.2699 18L15.7549 16.5581C15.1053 16.3892 14.5129 16.0574 14.0374 15.5961C13.5619 15.1347 13.2199 14.5602 13.0459 13.9302C12.8719 13.3001 12.872 12.6367 13.0462 12.0067C13.2203 11.3767 13.5624 10.8023 14.0381 10.3411L17.5388 6.94456C18.2579 6.24727 19.2332 5.85553 20.2502 5.85553C21.2671 5.85553 22.2424 6.24727 22.9615 6.94456C23.6806 7.64186 24.0846 8.58759 24.0846 9.57371C24.0846 10.5598 23.6806 11.5056 22.9615 12.2029L21.442 13.6744C21.6566 14.4548 21.739 15.2631 21.6873 16.0658L24.3162 13.5165C25.3943 12.4711 26 11.0531 26 9.57464C26 8.09616 25.3943 6.67822 24.3162 5.63278C23.2381 4.58733 21.7758 4 20.2511 4C18.7264 4 17.2642 4.58733 16.1861 5.63278L12.6834 9.0293Z" fill="#333333"/>
</svg>
