<svg width="7" height="11" viewBox="0 0 7 11" fill="none" xmlns="http://www.w3.org/2000/svg">
<path fill-rule="evenodd" clip-rule="evenodd" d="M3.00156 6.53981V10.5408C3.00156 10.9395 3.47556 11.1481 3.76947 10.8787L6.519 8.35828C6.71714 8.17659 6.71714 7.86423 6.519 7.68254L4.138 5.50001L6.519 3.31748C6.71714 3.13579 6.71714 2.82342 6.519 2.64173L3.76947 0.121327C3.47556 -0.148077 3.00156 0.0604653 3.00156 0.459201V4.46021L0.767905 2.4126C0.581348 2.24165 0.29147 2.25418 0.120463 2.4408C-0.050571 2.62741 -0.0379567 2.91718 0.148601 3.08835L2.77957 5.50001L0.148601 7.91166C-0.0379567 8.08284 -0.050571 8.3726 0.120463 8.55922C0.29147 8.74583 0.581348 8.75836 0.767905 8.58741L3.00156 6.53981ZM3.91807 4.45842L5.53117 2.9796L3.91807 1.50102V4.45842ZM5.53117 8.02041L3.91807 9.49922V6.54182L5.53117 8.02041Z" fill="#17B54E"/>
</svg>
