<svg width="30" height="28" viewBox="0 0 30 28" fill="none" xmlns="http://www.w3.org/2000/svg">
<path d="M2.28516 21.8854L27.6562 22C28.9131 22 30 20.9005 30 19.6968V2.58135C30 1.37765 29.3818 0.336695 28.125 0.336695L2.28516 -3.42507e-06C1.02832 -3.42507e-06 0 0.984839 0 2.18853V19.6968C0 20.9005 1.02832 21.8854 2.28516 21.8854ZM2.28516 2.18853L27.6562 2.24465V19.6968H2.28516V2.18853Z" fill="#B2B2B2"/>
<path d="M9 27C9 26.4477 9.44772 26 10 26H20C20.5523 26 21 26.4477 21 27C21 27.5523 20.5523 28 20 28H10C9.44772 28 9 27.5523 9 27Z" fill="#B2B2B2"/>
</svg>
