<svg width="22" height="22" viewBox="0 0 22 22" fill="none" xmlns="http://www.w3.org/2000/svg">
<path d="M6.12158 9.1125L7.04452 8.0625C5.59418 6.35625 3.48459 5.4375 1.375 5.4375V6.75C3.08904 6.75 4.80308 7.5375 5.98973 8.85L6.12158 9.1125ZM16.0103 15.2812C14.4281 15.2812 12.9777 14.625 11.7911 13.575L11 14.625C12.3185 15.9375 14.1644 16.5938 16.0103 16.5938V18.5625L20.625 15.9375L16.0103 13.3125V15.2812ZM16.0103 7.40625V9.375L20.625 6.75L16.0103 4.125V6.09375C13.9007 6.09375 11.7911 7.0125 10.4726 8.71875L5.98973 13.8375C4.80308 15.15 3.08904 15.9375 1.375 15.9375V17.25C3.48459 17.25 5.59418 16.3313 6.91267 14.625L11.3955 9.50625C12.5822 8.19375 14.2962 7.40625 16.0103 7.40625Z" fill="white"/>
</svg>
