<svg width="21" height="20" viewBox="0 0 21 20" fill="none" xmlns="http://www.w3.org/2000/svg">
<path d="M0 9.97015C0 15.4627 4.62254 20 10.2182 20C15.814 20 20.4365 15.4627 20.4365 9.97015C20.4365 4.47761 15.814 0 10.2182 0C4.62254 0 0 4.47761 0 9.97015ZM13.9893 14.6269C11.6172 13.194 8.57603 12.8358 5.0483 13.6119C4.19678 13.7313 4.07513 12.5373 4.80501 12.4179C8.69767 11.5224 11.9821 11.9403 14.6583 13.5522C15.3274 13.9701 14.6583 14.9851 13.9893 14.6269ZM15.0233 11.9403C12.2862 10.2687 8.08945 9.79104 4.86583 10.7463C3.83184 11.0448 3.46691 9.49254 4.44007 9.25373C8.15027 8.1791 12.712 8.71642 15.8748 10.6269C16.7263 11.1642 15.8748 12.4776 15.0233 11.9403ZM4.37925 7.70149C3.34526 8.0597 2.67621 6.32836 3.83184 5.91045C7.42039 4.83582 13.5027 5.01493 17.2737 7.22388C18.3077 7.76119 17.3345 9.43284 16.2397 8.83582C12.9553 6.92537 7.48122 6.74627 4.37925 7.70149Z" fill="#1ED760"/>
</svg>
