<svg width="26" height="26" viewBox="0 0 26 26" fill="none" xmlns="http://www.w3.org/2000/svg">
<path d="M22.2015 3.77982C21.0042 2.5768 19.5782 1.62303 18.0069 0.97411C16.4355 0.325186 14.7502 -0.00592193 13.049 8.01619e-05C5.92052 8.01619e-05 0.110999 5.78181 0.10447 12.8798C0.10447 15.1532 0.701908 17.3648 1.82986 19.3229L0 26L6.86238 24.2093C8.7608 25.2377 10.8876 25.7768 13.049 25.7774H13.0555C20.1856 25.7774 25.9935 19.9956 26 12.8912C26.0016 11.198 25.6667 9.52123 25.0145 7.95748C24.3623 6.39374 23.4057 4.97392 22.1999 3.77982H22.2015ZM13.049 23.5966C11.1212 23.5973 9.22879 23.0808 7.57082 22.1016L7.17905 21.8676L3.10799 22.9304L4.19513 18.9768L3.94048 18.5689C2.86282 16.8632 2.29287 14.8883 2.29671 12.8733C2.29671 6.98106 7.12355 2.17432 13.0555 2.17432C14.4687 2.1718 15.8684 2.44777 17.1739 2.98632C18.4795 3.52487 19.665 4.31535 20.6622 5.31219C21.6629 6.30514 22.4562 7.4855 22.9964 8.78518C23.5365 10.0849 23.8128 11.4781 23.8094 12.8847C23.8029 18.798 18.976 23.5966 13.049 23.5966ZM18.9499 15.5789C18.6283 15.418 17.0401 14.6397 16.7413 14.5292C16.4442 14.4235 16.2271 14.3683 16.0149 14.69C15.7978 15.0102 15.1775 15.7398 14.9915 15.9494C14.8054 16.1655 14.6128 16.1899 14.2895 16.0307C13.968 15.8682 12.9249 15.5302 11.6909 14.43C10.7278 13.5769 10.083 12.5207 9.89038 12.2005C9.70429 11.8788 9.87242 11.7065 10.034 11.5457C10.176 11.4027 10.3556 11.1687 10.5172 10.9834C10.6804 10.7982 10.7343 10.6617 10.8404 10.4472C10.9465 10.2294 10.8959 10.0442 10.8159 9.8833C10.7343 9.72242 10.0895 8.1348 9.81692 7.49456C9.55575 6.86243 9.28968 6.95018 9.09053 6.94206C8.90444 6.93068 8.68734 6.93068 8.47024 6.93068C8.30629 6.93474 8.14496 6.97249 7.99636 7.04156C7.84776 7.11063 7.71511 7.20953 7.60673 7.33206C7.30964 7.65381 6.47878 8.43218 6.47878 10.0198C6.47878 11.6074 7.63774 13.1333 7.80098 13.3494C7.96095 13.5655 10.0765 16.8139 13.3232 18.2114C14.0904 18.5445 14.6944 18.7411 15.1661 18.8906C15.9415 19.1376 16.6418 19.1003 17.2 19.0206C17.8203 18.9264 19.1115 18.2407 19.3841 17.4883C19.6518 16.7343 19.6518 16.0908 19.5702 15.9559C19.4902 15.8194 19.2731 15.7398 18.9499 15.5789Z" fill="white"/>
</svg>
