<svg width="8" height="21" viewBox="0 0 8 21" fill="none" xmlns="http://www.w3.org/2000/svg">
<path d="M4.51418 19.6279L4.69459 4.80796L6.1883 7.36836C6.51363 7.92618 7.05194 7.94395 7.39059 7.40805C7.72929 6.87215 7.74007 5.98624 7.41468 5.42842L4.49876 0.430334C4.3361 0.151424 4.12019 0.00752786 3.90261 0.000345782C3.68504 -0.0068363 3.4658 0.122696 3.29647 0.390647L0.261255 5.19228C-0.0774451 5.72818 -0.0882298 6.6141 0.237156 7.17192C0.56249 7.72973 1.1008 7.7475 1.43944 7.2116L2.99426 4.75183L2.81385 19.5717C2.80444 20.3448 3.17742 20.9842 3.64697 20.9997C4.11653 21.0152 4.50477 20.401 4.51418 19.6279Z" fill="white"/>
</svg>
