<svg width="19" height="16" viewBox="0 0 19 16" fill="none" xmlns="http://www.w3.org/2000/svg">
<rect x="3" width="16" height="1.5" fill="#C4C4C4"/>
<rect x="11" y="11" width="8" height="1" fill="#C4C4C4"/>
<rect x="18.9429" width="11.9844" height="1.59123" transform="rotate(89.7349 18.9429 0)" fill="#C4C4C4"/>
<rect x="4.60205" width="4.60408" height="1.60998" transform="rotate(89.7349 4.60205 0)" fill="#C4C4C4"/>
<path d="M10.2508 12.1727C10.5363 12.1501 10.7663 11.8777 10.7128 11.6014C10.392 9.94849 9.58856 8.47365 8.40037 7.35646C7.16792 6.19354 5.64167 5.51048 4.02842 5.29419C3.96289 5.28659 3.89501 5.29411 3.82979 5.31618C3.76456 5.33826 3.70364 5.37433 3.6515 5.42175C3.59937 5.46917 3.55734 5.52673 3.52851 5.5902C3.49969 5.65368 3.48479 5.72145 3.48492 5.78854C3.48392 5.90002 3.52079 6.00474 3.58946 6.08551C3.65814 6.16628 3.75455 6.2183 3.86287 6.23304C5.33706 6.4412 6.67787 7.07942 7.72554 8.07163C8.77685 9.05999 9.49176 10.3615 9.78509 11.8212C9.82864 12.0407 10.0227 12.1914 10.2508 12.1727ZM7.36532 12.4013C7.66405 12.3776 7.89328 12.0815 7.80675 11.8039C7.52976 10.9147 7.03938 10.1258 6.3759 9.50197C5.69012 8.85489 4.87047 8.42486 3.99489 8.20705C3.71266 8.13677 3.43038 8.38279 3.42408 8.68238L3.42366 8.70226C3.4192 8.91436 3.5594 9.08721 3.75822 9.13962C4.49464 9.33542 5.15934 9.70407 5.70107 10.2171C6.26263 10.747 6.65878 11.3926 6.8888 12.0949C6.95265 12.2904 7.13269 12.4197 7.3455 12.4028L7.36532 12.4013ZM4.74027 12.6092C4.99934 12.5887 5.21928 12.3582 5.15978 12.1128C5.08411 11.7931 4.92138 11.5088 4.68884 11.2899C4.45682 11.0704 4.16351 10.9245 3.83999 10.8675C3.59154 10.8223 3.37419 11.0552 3.36873 11.3151L3.34905 12.251C3.34768 12.3126 3.35845 12.3727 3.38074 12.4278C3.40303 12.4829 3.4364 12.532 3.47895 12.5721C3.5215 12.6123 3.57238 12.6427 3.62869 12.6618C3.685 12.6809 3.74563 12.6881 3.8071 12.6832L4.74027 12.6092Z" fill="#B3B3B3"/>
</svg>
