<svg width="14" height="14" viewBox="0 0 14 14" fill="none" xmlns="http://www.w3.org/2000/svg">
<g clip-path="url(#clip0_158_2319)">
<path d="M5.25 0.244366C5.33541 0.348152 5.38774 0.475166 5.40022 0.608998C5.41269 0.74283 5.38475 0.877328 5.32 0.995116C4.81413 1.92391 4.54994 2.965 4.55175 4.02262C4.55175 7.54099 7.42 10.39 10.955 10.39C11.4161 10.39 11.865 10.3419 12.2964 10.25C12.4286 10.2214 12.5664 10.2323 12.6924 10.2815C12.8184 10.3307 12.9272 10.4159 13.0051 10.5265C13.0874 10.6415 13.1293 10.7805 13.1244 10.9218C13.1195 11.0631 13.068 11.1988 12.978 11.3079C12.2917 12.1509 11.426 12.8301 10.4439 13.296C9.46174 13.762 8.38803 14.0028 7.301 14.0011C3.26725 14.0011 0 10.7514 0 6.74737C0 3.73387 1.84975 1.14912 4.4835 0.0536157C4.6147 -0.00183145 4.76034 -0.0132117 4.89856 0.0211844C5.03677 0.0555805 5.16009 0.133896 5.25 0.244366Z" fill="#B3B3B3"/>
</g>
<defs>
<clipPath id="clip0_158_2319">
<rect width="14" height="14" fill="white"/>
</clipPath>
</defs>
</svg>
