<svg width="35" height="35" viewBox="0 0 35 35" fill="none" xmlns="http://www.w3.org/2000/svg">
<path d="M10 20C11.3807 20 12.5 18.8806 12.5 17.5C12.5 16.1194 11.3807 15 10 15C8.61931 15 7.5 16.1194 7.5 17.5C7.5 18.8806 8.61931 20 10 20Z" fill="#6C6C6C"/>
<path d="M17.5 20C18.8807 20 20 18.8806 20 17.5C20 16.1194 18.8807 15 17.5 15C16.1193 15 15 16.1194 15 17.5C15 18.8806 16.1193 20 17.5 20Z" fill="#6C6C6C"/>
<path d="M27.5 17.5C27.5 18.8806 26.3807 20 25 20C23.6193 20 22.5 18.8806 22.5 17.5C22.5 16.1194 23.6193 15 25 15C26.3807 15 27.5 16.1194 27.5 17.5Z" fill="#6C6C6C"/>
</svg>
