<svg width="30" height="22" viewBox="0 0 30 22" fill="none" xmlns="http://www.w3.org/2000/svg">
<path d="M7.39726 7.6L8.83562 6C6.57534 3.4 3.28767 2 0 2V4C2.67123 4 5.34247 5.2 7.19178 7.2L7.39726 7.6ZM22.8082 17C20.3425 17 18.0822 16 16.2329 14.4L15 16C17.0548 18 19.9315 19 22.8082 19V22L30 18L22.8082 14V17ZM22.8082 5V8L30 4L22.8082 0V3C19.5205 3 16.2329 4.4 14.1781 7L7.19178 14.8C5.34247 16.8 2.67123 18 0 18V20C3.28767 20 6.57534 18.6 8.63014 16L15.6164 8.2C17.4658 6.2 20.137 5 22.8082 5Z" fill="#1DB954"/>
</svg>
