<svg width="36" height="35" viewBox="0 0 36 35" fill="none" xmlns="http://www.w3.org/2000/svg">
<path fill-rule="evenodd" clip-rule="evenodd" d="M18.0001 20.0581L28.3629 31.25H7.63721L18.0001 20.0581Z" fill="#B2B2B2"/>
<path fill-rule="evenodd" clip-rule="evenodd" d="M9.5277 25.2266C7.12549 23.018 5.74289 19.9736 5.74289 16.7151C5.74289 10.2103 11.2306 4.93702 18 4.93702C24.7695 4.93702 30.2572 10.2103 30.2572 16.7151C30.2572 19.9736 28.8746 23.018 26.4724 25.2266L27.776 26.5358C30.5463 23.9889 32.1429 20.4732 32.1429 16.7151C32.1429 9.2095 25.8109 3.125 18 3.125C10.1891 3.125 3.85718 9.2095 3.85718 16.7151C3.85718 20.4732 5.4538 23.9889 8.22406 26.5358L9.5277 25.2266Z" fill="#B2B2B2"/>
<path fill-rule="evenodd" clip-rule="evenodd" d="M12.569 22.168C11.0289 20.752 10.1428 18.801 10.1428 16.7119C10.1428 12.5421 13.6606 9.16187 17.9999 9.16187C22.3393 9.16187 25.8571 12.5421 25.8571 16.7119C25.8571 18.801 24.971 20.752 23.4309 22.168L24.7345 23.4773C26.6427 21.7229 27.7428 19.3006 27.7428 16.7119C27.7428 11.5414 23.3808 7.34985 17.9999 7.34985C12.6191 7.34985 8.25708 11.5414 8.25708 16.7119C8.25708 19.3006 9.35716 21.7229 11.2654 23.4773L12.569 22.168Z" fill="#B2B2B2"/>
<path fill-rule="evenodd" clip-rule="evenodd" d="M15.6103 19.1095C14.9322 18.4861 14.5427 17.6284 14.5427 16.7088C14.5427 14.874 16.0905 13.3867 17.9998 13.3867C19.9092 13.3867 21.457 14.874 21.457 16.7088C21.457 17.6284 21.0675 18.4861 20.3894 19.1095L21.693 20.4187C22.7391 19.457 23.3427 18.128 23.3427 16.7088C23.3427 13.8733 20.9506 11.5747 17.9998 11.5747C15.0491 11.5747 12.657 13.8733 12.657 16.7088C12.657 18.128 13.2605 19.457 14.3066 20.4187L15.6103 19.1095Z" fill="#B2B2B2"/>
</svg>
