<svg width="17" height="17" viewBox="0 0 17 17" fill="none" xmlns="http://www.w3.org/2000/svg">
<path d="M13.8713 1.0625L13.1727 1.8801C14.8625 3.44672 15.9266 5.67771 15.9266 8.1573C15.9266 10.6369 14.8615 12.8679 13.1727 14.4345L13.8703 15.2521C14.8563 14.3519 15.6438 13.2561 16.1827 12.0346C16.7215 10.8131 16.9999 9.49264 17 8.15754C17.0001 6.82244 16.7219 5.50197 16.1833 4.28036C15.6446 3.05876 14.8572 1.96284 13.8713 1.0625ZM11.4368 3.91285L10.7392 4.73045C11.1943 5.17774 11.5557 5.71121 11.8024 6.2997C12.0491 6.8882 12.1761 7.51995 12.176 8.15806C12.1759 8.79618 12.0487 9.42788 11.8019 10.0163C11.555 10.6047 11.1934 11.1381 10.7381 11.5852L11.4357 12.4028C12.5501 11.3313 13.2477 9.82679 13.2477 8.15837C13.2477 6.48995 12.5512 4.98441 11.4368 3.91285ZM0 4.94262V11.372H3.00466L8.57248 14.5867V1.72794L3.00466 4.94262H0ZM7.50092 3.58388V12.7307L3.29183 10.3004H1.07156V6.01418H3.29183L7.50092 3.58388Z" fill="#B2B2B2"/>
</svg>
