<svg width="53" height="53" viewBox="0 0 53 53" fill="none" xmlns="http://www.w3.org/2000/svg">
<path d="M26.4999 0C11.8647 0 0 11.8644 0 26.4996C0 41.1354 11.8647 52.9988 26.4999 52.9988C41.1366 52.9988 53.0001 41.1354 53.0001 26.4996C53.0001 11.8653 41.1369 0 26.4999 0ZM38.6525 38.22C38.1779 38.9984 37.1589 39.2452 36.3805 38.7674C30.1586 34.9669 22.326 34.1062 13.1017 36.2137C12.2128 36.4163 11.3268 35.8593 11.1242 34.9701C10.9208 34.0809 11.4755 33.1949 12.3666 32.9923C22.4611 30.6861 31.1199 31.6791 38.1051 35.9479C38.8835 36.4257 39.1304 37.4415 38.6525 38.22ZM41.8961 31.0044C41.298 31.9766 40.0259 32.2835 39.0544 31.6854C31.9313 27.3071 21.0732 26.0391 12.6479 28.5966C11.5552 28.9267 10.4012 28.3109 10.0695 27.2201C9.74043 26.1274 10.3565 24.9756 11.4473 24.6433C21.0713 21.7232 33.0357 23.1377 41.2157 28.1644C42.1872 28.7624 42.4942 30.0342 41.8961 31.0044ZM42.1746 23.4908C33.6338 18.4179 19.5426 17.9515 11.3881 20.4264C10.0787 20.8235 8.69395 20.0843 8.29713 18.7749C7.90031 17.4648 8.63889 16.081 9.94928 15.6829C19.31 12.8413 34.8711 13.3903 44.7042 19.2277C45.8845 19.9267 46.2706 21.4479 45.5713 22.6241C44.8751 23.8019 43.3486 24.1902 42.1746 23.4908Z" fill="#F5F5F5"/>
</svg>
