<svg width="23" height="22" viewBox="0 0 23 22" fill="none" xmlns="http://www.w3.org/2000/svg">
<path d="M21.0332 2.06674C19.8551 0.823715 18.2735 0.0890624 16.6018 0.00846633C14.9301 -0.0721297 13.2905 0.507217 12.0082 1.63162C11.8606 1.74805 11.683 1.81519 11.4984 1.82424C11.3126 1.81858 11.1335 1.7511 10.9869 1.63162C9.70513 0.506577 8.06565 -0.0732023 6.39404 0.00740575C4.72242 0.0880138 3.14092 0.823114 1.96356 2.06674C1.33901 2.71636 0.843888 3.48909 0.506845 4.34019C0.169802 5.19129 -0.00246157 6.10386 2.65734e-05 7.02506C2.65734e-05 8.89797 0.697294 10.6591 1.9208 11.9352L9.25855 20.918C9.53505 21.2572 9.87866 21.5296 10.2656 21.7164C10.6526 21.9033 11.0738 22 11.5 22C11.9262 22 12.3474 21.9033 12.7344 21.7164C13.1213 21.5296 13.465 21.2572 13.7415 20.918L21.0348 11.9834C21.6595 11.3338 22.1548 10.5611 22.4921 9.71002C22.8295 8.85894 23.0021 7.94635 23 7.02506C23.0014 6.10371 22.8283 5.1912 22.4908 4.34017C22.1532 3.48915 21.6578 2.71648 21.0332 2.06674ZM19.8458 10.8345L12.5081 19.8173C12.0032 20.4364 10.9935 20.4364 10.4886 19.8173L3.10813 10.7864C2.63456 10.2935 2.25918 9.70726 2.00372 9.06162C1.74826 8.41599 1.61778 7.72378 1.61986 7.02506C1.61986 5.60447 2.14774 4.26815 3.10813 3.26376C3.58015 2.76664 4.14147 2.372 4.75981 2.10253C5.37816 1.83305 6.04134 1.69406 6.71122 1.69354C7.88752 1.69275 9.02666 2.12436 9.92951 2.91291C9.99693 2.97482 10.6005 3.51657 11.4984 3.51657C12.3716 3.51657 12.9883 2.98342 13.0442 2.93182C14.0164 2.07896 15.2596 1.6395 16.5272 1.70067C17.7947 1.76184 18.994 2.31916 19.8869 3.26204C20.3623 3.76053 20.7386 4.35256 20.994 5.00396C21.2495 5.65535 21.379 6.3532 21.3752 7.05724C21.3714 7.76127 21.2343 8.45754 20.9718 9.10585C20.7093 9.75417 20.3266 10.3417 19.8458 10.8345Z" fill="#CBB7B5"/>
</svg>
