<svg width="23" height="23" viewBox="0 0 23 23" fill="none" xmlns="http://www.w3.org/2000/svg">
<g clip-path="url(#clip0_107_3526)">
<path d="M11.5 23C12.2625 23 12.9938 22.6971 13.5329 22.158C14.0721 21.6188 14.375 20.8875 14.375 20.125H8.625C8.625 20.8875 8.9279 21.6188 9.46707 22.158C10.0062 22.6971 10.7375 23 11.5 23ZM12.9303 1.57985C12.9504 1.37997 12.9283 1.17811 12.8656 0.987273C12.8028 0.796441 12.7008 0.620878 12.566 0.471908C12.4313 0.322937 12.2668 0.203867 12.0831 0.122375C11.8995 0.0408829 11.7009 -0.0012207 11.5 -0.0012207C11.2991 -0.0012207 11.1005 0.0408829 10.9169 0.122375C10.7332 0.203867 10.5687 0.322937 10.434 0.471908C10.2992 0.620878 10.1972 0.796441 10.1344 0.987273C10.0717 1.17811 10.0496 1.37997 10.0697 1.57985C8.44491 1.91033 6.98427 2.79218 5.9351 4.07607C4.88593 5.35996 4.31271 6.96699 4.3125 8.62504C4.3125 10.2034 3.59375 17.25 1.4375 18.6875H21.5625C19.4062 17.25 18.6875 10.2034 18.6875 8.62504C18.6875 5.14629 16.215 2.24254 12.9303 1.57985Z" fill="#1ED760"/>
</g>
<defs>
<clipPath id="clip0_107_3526">
<rect width="23" height="23" fill="white"/>
</clipPath>
</defs>
</svg>
