<svg width="21" height="21" viewBox="0 0 21 21" fill="none" xmlns="http://www.w3.org/2000/svg">
<path d="M20.6807 19.1277L15.5038 13.9295C16.8349 12.4018 17.5642 10.4797 17.5642 8.47874C17.5642 3.80364 13.6245 0 8.7821 0C3.93973 0 0 3.80364 0 8.47874C0 13.1538 3.93973 16.9575 8.7821 16.9575C10.6 16.9575 12.3324 16.4281 13.8135 15.4232L19.0297 20.6609C19.2477 20.8795 19.5409 21 19.8552 21C20.1526 21 20.4348 20.8905 20.649 20.6914C21.1042 20.2686 21.1187 19.5675 20.6807 19.1277ZM8.7821 2.21185C12.3614 2.21185 15.2732 5.0231 15.2732 8.47874C15.2732 11.9344 12.3614 14.7456 8.7821 14.7456C5.20282 14.7456 2.29098 11.9344 2.29098 8.47874C2.29098 5.0231 5.20282 2.21185 8.7821 2.21185Z" fill="black"/>
</svg>
