<svg width="8" height="13" viewBox="0 0 8 13" fill="none" xmlns="http://www.w3.org/2000/svg">
<path d="M0.9168 0.127751C0.954015 0.0871491 0.998182 0.0549683 1.04678 0.033048C1.09537 0.0111278 1.14744 -0.000101981 1.2 6.97807e-07H6.8C6.90609 6.97807e-07 7.00783 0.0460943 7.08284 0.128141C7.15786 0.210189 7.2 0.321468 7.2 0.437501C7.2 1.0325 6.9264 1.46475 6.6832 1.73163C6.5824 1.841 6.4832 1.92763 6.4 1.99238V5.8695L6.4624 5.9115C6.6248 6.02263 6.8432 6.18625 7.0632 6.39713C7.488 6.80313 8 7.46113 8 8.3125C8 8.42853 7.95786 8.53981 7.88284 8.62186C7.80783 8.70391 7.70609 8.75 7.6 8.75H4.4V12.6875C4.4 12.929 4.2208 13 4 13C3.7792 13 3.6 12.929 3.6 12.6875V8.75H0.4C0.293913 8.75 0.192172 8.70391 0.117157 8.62186C0.0421428 8.53981 0 8.42853 0 8.3125C0 7.46113 0.512 6.80313 0.936 6.39713C1.14296 6.20057 1.36513 6.02403 1.6 5.8695V1.99238C1.49912 1.91425 1.40439 1.82703 1.3168 1.73163C1.0736 1.46475 0.8 1.03163 0.8 0.437501C0.799906 0.380009 0.810173 0.323061 0.830215 0.269911C0.850256 0.216762 0.879678 0.168455 0.9168 0.127751Z" fill="#1ED760"/>
</svg>
