<svg width="26" height="21" viewBox="0 0 26 21" fill="none" xmlns="http://www.w3.org/2000/svg">
<path d="M8.16725 21C17.979 21 23.3464 12.9187 23.3464 5.9228C23.3464 5.69666 23.3464 5.46729 23.3366 5.24115C24.3816 4.4892 25.2835 3.55825 26 2.49191C25.0239 2.91972 23.9895 3.20168 22.9304 3.32863C24.046 2.66578 24.8815 1.62283 25.2817 0.393637C24.2336 1.01088 23.0864 1.44418 21.8904 1.67457C21.0863 0.823345 20.0223 0.259434 18.8631 0.0701857C17.704 -0.119063 16.5144 0.0769118 15.4787 0.627754C14.4429 1.1786 13.6188 2.05356 13.134 3.11713C12.6492 4.18069 12.5307 5.37349 12.7969 6.51077C10.6758 6.40505 8.60083 5.85733 6.70644 4.90314C4.81206 3.94894 3.14061 2.60957 1.8005 0.971914C1.12018 2.13991 0.912557 3.5215 1.2198 4.83614C1.52704 6.15077 2.32611 7.29989 3.45475 8.05015C2.609 8.02159 1.78185 7.79584 1.04 7.39111V7.4638C1.04146 8.68736 1.46787 9.87289 2.24717 10.82C3.02647 11.7671 4.11084 12.4177 5.317 12.6618C4.85918 12.7872 4.38625 12.8497 3.91138 12.8476C3.5766 12.8486 3.24249 12.8178 2.91363 12.7555C3.25453 13.8088 3.91832 14.7297 4.81203 15.3892C5.70573 16.0488 6.78459 16.4139 7.8975 16.4336C6.0069 17.9096 3.67153 18.7102 1.2675 18.7063C0.843896 18.7081 0.420588 18.6838 0 18.6336C2.43996 20.1799 5.27361 21.0009 8.16725 21Z" fill="white"/>
</svg>
