<svg width="12" height="12" viewBox="0 0 12 12" fill="none" xmlns="http://www.w3.org/2000/svg">
<path d="M11.8175 10.9301L8.85934 7.95969C9.61995 7.08675 10.0367 5.98841 10.0367 4.845C10.0367 2.17351 7.78542 0 5.01834 0C2.25127 0 0 2.17351 0 4.845C0 7.51648 2.25127 9.68999 5.01834 9.68999C6.05714 9.68999 7.04707 9.38749 7.89342 8.81326L10.8741 11.8062C10.9987 11.9311 11.1663 12 11.3458 12C11.5158 12 11.677 11.9374 11.7994 11.8237C12.0595 11.5821 12.0678 11.1814 11.8175 10.9301ZM5.01834 1.26391C7.06365 1.26391 8.72756 2.87034 8.72756 4.845C8.72756 6.81965 7.06365 8.42608 5.01834 8.42608C2.97304 8.42608 1.30913 6.81965 1.30913 4.845C1.30913 2.87034 2.97304 1.26391 5.01834 1.26391Z" fill="white"/>
</svg>
