<svg width="29" height="29" viewBox="0 0 29 29" fill="none" xmlns="http://www.w3.org/2000/svg">
<path fill-rule="evenodd" clip-rule="evenodd" d="M13.7025 16.3294V23.3627C13.7025 24.0636 14.5358 24.4302 15.0524 23.9566L19.8857 19.5261C20.234 19.2067 20.234 18.6576 19.8857 18.3382L15.7002 14.5016L19.8857 10.665C20.234 10.3456 20.234 9.79648 19.8857 9.47709L15.0524 5.04653C14.5358 4.57295 13.7025 4.93954 13.7025 5.64047V12.6737L9.77603 9.07431C9.44808 8.7738 8.93852 8.79583 8.63791 9.12387C8.33725 9.45191 8.35942 9.96129 8.68737 10.2622L13.3123 14.5016L8.68737 18.741C8.35942 19.0419 8.33725 19.5513 8.63791 19.8793C8.93852 20.2073 9.44808 20.2294 9.77603 19.9289L13.7025 16.3294ZM15.3136 12.6706L18.1493 10.071L15.3136 7.47185V12.6706ZM18.1493 18.9321L15.3136 21.5317V16.333L18.1493 18.9321Z" fill="#1DB954"/>
</svg>
