<svg width="20" height="21" viewBox="0 0 20 21" fill="none" xmlns="http://www.w3.org/2000/svg">
<path d="M3.86163 6.39224C5.43219 2.8112 9.3291 0.793068 13.1107 1.80205C17.2998 2.91976 19.7611 7.32891 18.6082 11.6502C17.4552 15.9714 13.1246 18.5684 8.93544 17.4507C6.89616 16.9066 5.20844 15.5637 4.18343 13.728C4.03278 13.4581 3.69575 13.3682 3.43067 13.5271C3.16558 13.6861 3.07283 14.0337 3.22393 14.3044C4.39181 16.3961 6.31795 17.9286 8.64244 18.5488C13.4195 19.8234 18.3579 16.862 19.6727 11.9342C20.9875 7.00646 18.1808 1.97848 13.4037 0.703897C9.033 -0.462261 4.52723 1.9176 2.78529 6.10506L1.01562 5.63289L2.22572 10.0729L5.48683 6.82586L3.86163 6.39224Z" fill="white"/>
<rect x="10.0646" y="3.65982" width="0.91497" height="5.94731" rx="0.443764" fill="white"/>
<rect x="10.0646" y="9.31704" width="0.914971" height="5.71857" rx="0.443764" transform="rotate(-43.0915 10.0646 9.31704)" fill="white"/>
</svg>
