<svg width="16" height="4" viewBox="0 0 16 4" fill="none" xmlns="http://www.w3.org/2000/svg">
<path d="M1.99998 3.99996C3.10453 3.99996 3.99996 3.10446 3.99996 1.99998C3.99996 0.8955 3.10453 0 1.99998 0C0.895439 0 0 0.8955 0 1.99998C0 3.10446 0.895439 3.99996 1.99998 3.99996Z" fill="#ABA4A3"/>
<path d="M7.99993 3.99996C9.10447 3.99996 9.99991 3.10446 9.99991 1.99998C9.99991 0.8955 9.10447 0 7.99993 0C6.89538 0 5.99995 0.8955 5.99995 1.99998C5.99995 3.10446 6.89538 3.99996 7.99993 3.99996Z" fill="#ABA4A3"/>
<path d="M15.9999 1.99998C15.9999 3.10446 15.1044 3.99996 13.9999 3.99996C12.8953 3.99996 11.9999 3.10446 11.9999 1.99998C11.9999 0.8955 12.8953 0 13.9999 0C15.1044 0 15.9999 0.8955 15.9999 1.99998Z" fill="#ABA4A3"/>
</svg>
