<svg width="24" height="22" viewBox="0 0 24 22" fill="none" xmlns="http://www.w3.org/2000/svg">
<path fill-rule="evenodd" clip-rule="evenodd" d="M22.2601 10.841C22.2601 14.5289 20.5272 17.9402 17.6044 20.2048C17.2297 20.4951 17.1697 21.0238 17.4704 21.3856C17.7711 21.7474 18.3187 21.8053 18.6934 21.515C22.0234 18.9348 24 15.0438 24 10.841C24 6.64884 22.0335 2.76669 18.718 0.186056C18.344 -0.105088 17.7963 -0.0483361 17.4948 0.312814C17.1932 0.673965 17.252 1.20275 17.626 1.4939C20.5361 3.75894 22.2601 7.16245 22.2601 10.841ZM1.73989 10.841C1.73989 14.5289 3.47283 17.9402 6.39558 20.2048C6.77029 20.4951 6.83029 21.0238 6.52958 21.3856C6.22887 21.7474 5.68132 21.8053 5.30661 21.515C1.97664 18.9348 0 15.0438 0 10.841C0 6.64884 1.96649 2.76669 5.28197 0.186056C5.65602 -0.105088 6.2037 -0.0483361 6.50524 0.312814C6.80678 0.673965 6.748 1.20275 6.37395 1.4939C3.46393 3.75894 1.73989 7.16245 1.73989 10.841ZM9.20394 16.6192C7.43652 15.2301 6.3915 13.1544 6.3915 10.9117C6.3915 8.66902 7.43652 6.5933 9.20394 5.20421C9.54484 4.93628 9.59623 4.45226 9.31874 4.12312C9.04124 3.79397 8.53993 3.74435 8.19903 4.01228C6.06412 5.6902 4.7997 8.20172 4.7997 10.9117C4.7997 13.6217 6.06412 16.1332 8.19903 17.8111C8.53993 18.0791 9.04124 18.0294 9.31874 17.7003C9.59623 17.3712 9.54484 16.8871 9.20394 16.6192ZM11.9993 12.7848C13.0975 12.7848 13.9877 11.9253 13.9877 10.865C13.9877 9.80463 13.0975 8.94507 11.9993 8.94507C10.9011 8.94507 10.0108 9.80463 10.0108 10.865C10.0108 11.9253 10.9011 12.7848 11.9993 12.7848ZM14.6926 16.6192C16.46 15.2301 17.505 13.1544 17.505 10.9117C17.505 8.66902 16.46 6.5933 14.6926 5.20421C14.3517 4.93628 14.3003 4.45226 14.5778 4.12312C14.8553 3.79397 15.3566 3.74435 15.6975 4.01228C17.8324 5.6902 19.0968 8.20172 19.0968 10.9117C19.0968 13.6217 17.8324 16.1332 15.6975 17.8111C15.3566 18.0791 14.8553 18.0294 14.5778 17.7003C14.3003 17.3712 14.3517 16.8871 14.6926 16.6192Z" fill="#B3B3B3"/>
</svg>
