<svg width="7" height="20" viewBox="0 0 7 20" fill="none" xmlns="http://www.w3.org/2000/svg">
<path d="M2.72222 1.32354V15.3345L1.32775 12.9614C1.02402 12.4444 0.531552 12.4444 0.227828 12.9614C-0.0759427 13.4784 -0.0759427 14.316 0.227828 14.833L2.95004 19.4654C3.1019 19.7239 3.30095 19.8531 3.5 19.8531C3.69905 19.8531 3.8981 19.7239 4.04996 19.4654L6.77217 14.833C7.07594 14.316 7.07594 13.4784 6.77217 12.9614C6.46845 12.4444 5.97598 12.4444 5.67225 12.9614L4.27778 15.3345V1.32354C4.27778 0.592622 3.92957 0 3.5 0C3.07043 0 2.72222 0.592622 2.72222 1.32354Z" fill="white"/>
</svg>
