<svg width="30" height="25" viewBox="0 0 30 25" fill="none" xmlns="http://www.w3.org/2000/svg">
<path d="M9.64286 5.20833H19.2857V8.33333L26.7857 4.16667L19.2857 0V3.125H9.64286C4.28571 3.125 0 7.29167 0 12.5C0 13.75 0.214286 15 0.857143 16.25L2.78571 15.2083C2.35714 14.375 2.14286 13.5417 2.14286 12.5C2.14286 8.54167 5.57143 5.20833 9.64286 5.20833ZM29.1429 8.75L27.2143 9.79167C27.6429 10.625 27.8571 11.4583 27.8571 12.5C27.8571 16.4583 24.4286 19.7917 20.3571 19.7917H10.7143V16.6667L3.21429 20.8333L10.7143 25V21.875H20.3571C25.7143 21.875 30 17.7083 30 12.5C30 11.25 29.7857 10 29.1429 8.75Z" fill="white"/>
</svg>
