<svg width="12" height="12" viewBox="0 0 12 12" fill="none" xmlns="http://www.w3.org/2000/svg">
<path d="M3.33904 4.97045L3.84247 4.39773C3.05137 3.46705 1.90068 2.96591 0.75 2.96591V3.68182C1.68493 3.68182 2.61986 4.11136 3.26712 4.82727L3.33904 4.97045ZM8.73288 8.33523C7.86986 8.33523 7.07877 7.97727 6.43151 7.40455L6 7.97727C6.71918 8.69318 7.72603 9.05114 8.73288 9.05114V10.125L11.25 8.69318L8.73288 7.26136V8.33523ZM8.73288 4.03977V5.11364L11.25 3.68182L8.73288 2.25V3.32386C7.58219 3.32386 6.43151 3.825 5.71233 4.75568L3.26712 7.54773C2.61986 8.26364 1.68493 8.69318 0.75 8.69318V9.40909C1.90068 9.40909 3.05137 8.90795 3.77055 7.97727L6.21575 5.18523C6.86301 4.46932 7.79795 4.03977 8.73288 4.03977Z" fill="#1ED760"/>
</svg>
