<svg width="28" height="30" viewBox="0 0 28 30" fill="none" xmlns="http://www.w3.org/2000/svg">
<path d="M15.5081 5.77825C15.5081 2.15304 12.8093 0.378246 9.90444 0.378246C6.99955 0.378246 4.3008 2.15304 4.3008 5.77825C4.3008 7.66049 6.08559 9.89524 7.10262 11.0921C10.4648 14.6347 0.938611 16.9965 0.378246 19.3582L0.378246 24.0817" stroke="#C4C4C4" stroke-width="0.75"/>
<path d="M20.3272 16.1354C22.0083 13.1833 22.5687 12.531 22.5687 10.8215C22.5687 7.19633 19.8699 5.42153 16.965 5.42153C14.0601 5.42153 11.3614 7.19633 11.3614 10.8215C11.3614 12.7038 13.1462 14.9385 14.1632 16.1354C17.5254 19.678 7.9992 22.0398 7.43884 24.4015L7.43884 29.1249" stroke="#C4C4C4" stroke-width="0.75"/>
<path d="M27.5133 29.6293L27.612 24.7704C26.4775 22.3072 17.1548 20.2152 20.1234 16.2673L20.7803 15.5081" stroke="#C4C4C4" stroke-width="0.765958"/>
</svg>
