<svg width="28" height="28" viewBox="0 0 28 28" fill="none" xmlns="http://www.w3.org/2000/svg">
<path d="M8 16C9.10455 16 10 15.1045 10 14C10 12.8955 9.10455 12 8 12C6.89545 12 6 12.8955 6 14C6 15.1045 6.89545 16 8 16Z" fill="#ABA4A3"/>
<path d="M14 16C15.1046 16 16 15.1045 16 14C16 12.8955 15.1046 12 14 12C12.8954 12 12 12.8955 12 14C12 15.1045 12.8954 16 14 16Z" fill="#ABA4A3"/>
<path d="M22 14C22 15.1045 21.1046 16 20 16C18.8954 16 18 15.1045 18 14C18 12.8955 18.8954 12 20 12C21.1046 12 22 12.8955 22 14Z" fill="#ABA4A3"/>
</svg>
