<svg width="22" height="22" viewBox="0 0 22 22" fill="none" xmlns="http://www.w3.org/2000/svg">
<path fill-rule="evenodd" clip-rule="evenodd" d="M11.7333 14.1636V5.86667H10.2667V14.1533L7.4448 10.8739L6.33307 11.8272L11.0015 17.2568L15.6875 11.8301L14.5757 10.8724L11.7333 14.1636ZM11 0C4.92507 0 0 4.92507 0 11C0 17.0749 4.92507 22 11 22C17.0749 22 22 17.0749 22 11C22 4.92507 17.0749 0 11 0ZM11 20.5333C5.74347 20.5333 1.46667 16.2565 1.46667 11C1.46667 5.74347 5.74347 1.46667 11 1.46667C16.2565 1.46667 20.5333 5.74347 20.5333 11C20.5333 16.2565 16.2565 20.5333 11 20.5333Z" fill="#B3B3B3"/>
</svg>
