<svg width="29" height="29" viewBox="0 0 29 29" fill="none" xmlns="http://www.w3.org/2000/svg">
<path d="M9.96875 8.15625H18.125V10.875L24.4688 7.25L18.125 3.625V6.34375H9.96875C5.4375 6.34375 1.8125 9.96875 1.8125 14.5C1.8125 15.5875 1.99375 16.675 2.5375 17.7625L4.16875 16.8563C3.80625 16.1313 3.625 15.4062 3.625 14.5C3.625 11.0563 6.525 8.15625 9.96875 8.15625ZM26.4625 11.2375L24.8312 12.1437C25.1938 12.8687 25.375 13.5938 25.375 14.5C25.375 17.9438 22.475 20.8438 19.0312 20.8438H10.875V18.125L4.53125 21.75L10.875 25.375V22.6562H19.0312C23.5625 22.6562 27.1875 19.0312 27.1875 14.5C27.1875 13.4125 27.0063 12.325 26.4625 11.2375Z" fill="#65D46E"/>
</svg>
