<svg width="33" height="31" viewBox="0 0 33 31" fill="none" xmlns="http://www.w3.org/2000/svg">
<path d="M9.42843 17.7142C10.7302 17.7142 11.7856 16.7228 11.7856 15.4999C11.7856 14.2771 10.7302 13.2856 9.42843 13.2856C8.12664 13.2856 7.07129 14.2771 7.07129 15.4999C7.07129 16.7228 8.12664 17.7142 9.42843 17.7142Z" fill="white"/>
<path d="M16.4999 17.7142C17.8017 17.7142 18.857 16.7228 18.857 15.4999C18.857 14.2771 17.8017 13.2856 16.4999 13.2856C15.1981 13.2856 14.1427 14.2771 14.1427 15.4999C14.1427 16.7228 15.1981 17.7142 16.4999 17.7142Z" fill="white"/>
<path d="M25.9284 15.4999C25.9284 16.7228 24.8731 17.7142 23.5713 17.7142C22.2695 17.7142 21.2141 16.7228 21.2141 15.4999C21.2141 14.2771 22.2695 13.2856 23.5713 13.2856C24.8731 13.2856 25.9284 14.2771 25.9284 15.4999Z" fill="white"/>
</svg>
