<svg width="16" height="17" viewBox="0 0 16 17" fill="none" xmlns="http://www.w3.org/2000/svg">
<path d="M9.72144 9.11376V16.4026" stroke="#FBFBFB" stroke-width="1.2"/>
<path d="M0.607683 9.11376L0.607683 16.4026" stroke="#FBFBFB" stroke-width="1.2"/>
<path d="M9.72144 0V7.2888" stroke="#FBFBFB" stroke-width="1.2"/>
<path d="M6.27856 0L6.27846 7.30135" stroke="#FBFBFB" stroke-width="1.2"/>
<path d="M15.3923 9.11376L15.3922 16.4151" stroke="#FBFBFB" stroke-width="1.2"/>
<path d="M6.27856 9.11376L6.27846 16.4151" stroke="#FBFBFB" stroke-width="1.2"/>
<path d="M15.3923 0L15.3922 7.30135" stroke="#FBFBFB" stroke-width="1.2"/>
<line x1="6.68352" y1="0.607584" x2="0.607683" y2="0.607584" stroke="#FBFBFB" stroke-width="1.2"/>
<line x1="15.7973" y1="9.72134" x2="9.72144" y2="9.72134" stroke="#FBFBFB" stroke-width="1.2"/>
<line x1="6.68352" y1="9.72134" x2="0.607683" y2="9.72134" stroke="#FBFBFB" stroke-width="1.2"/>
<path d="M0.607683 0L0.607683 7.2888" stroke="#FBFBFB" stroke-width="1.2"/>
<line x1="15.7973" y1="0.607584" x2="9.72144" y2="0.607584" stroke="#FBFBFB" stroke-width="1.2"/>
<line x1="6.68352" y1="6.68342" x2="0.607683" y2="6.68342" stroke="#FBFBFB" stroke-width="1.2"/>
<line x1="15.7973" y1="15.7972" x2="9.72144" y2="15.7972" stroke="#FBFBFB" stroke-width="1.2"/>
<line x1="6.68352" y1="15.7972" x2="0.607683" y2="15.7972" stroke="#FBFBFB" stroke-width="1.2"/>
<line x1="15.7973" y1="6.68342" x2="9.72144" y2="6.68342" stroke="#FBFBFB" stroke-width="1.2"/>
</svg>
