<svg width="40" height="40" viewBox="0 0 40 40" fill="none" xmlns="http://www.w3.org/2000/svg">
<path d="M11.4286 22.8571C13.0065 22.8571 14.2857 21.5778 14.2857 20C14.2857 18.4221 13.0065 17.1428 11.4286 17.1428C9.85062 17.1428 8.57141 18.4221 8.57141 20C8.57141 21.5778 9.85062 22.8571 11.4286 22.8571Z" fill="#333333"/>
<path d="M20 22.8571C21.5779 22.8571 22.8571 21.5778 22.8571 20C22.8571 18.4221 21.5779 17.1428 20 17.1428C18.422 17.1428 17.1428 18.4221 17.1428 20C17.1428 21.5778 18.422 22.8571 20 22.8571Z" fill="#333333"/>
<path d="M31.4286 20C31.4286 21.5778 30.1493 22.8571 28.5714 22.8571C26.9935 22.8571 25.7143 21.5778 25.7143 20C25.7143 18.4221 26.9935 17.1428 28.5714 17.1428C30.1493 17.1428 31.4286 18.4221 31.4286 20Z" fill="#333333"/>
</svg>
