<svg width="22" height="24" viewBox="0 0 22 24" fill="none" xmlns="http://www.w3.org/2000/svg">
<path fill-rule="evenodd" clip-rule="evenodd" d="M15.4555 22.8077C17.121 22.8077 18.4712 21.4576 18.4712 19.792C18.4712 18.1265 17.121 16.7763 15.4555 16.7763C13.79 16.7763 12.4398 18.1265 12.4398 19.792C12.4398 21.4576 13.79 22.8077 15.4555 22.8077ZM15.4553 21.6015C16.4546 21.6015 17.2647 20.7914 17.2647 19.7921C17.2647 18.7928 16.4546 17.9827 15.4553 17.9827C14.456 17.9827 13.6459 18.7928 13.6459 19.7921C13.6459 20.7914 14.456 21.6015 15.4553 21.6015Z" fill="#C4C4C4"/>
<path d="M17.466 10.9319H18.4712V20.356L17.466 20.9843V10.9319Z" fill="#C4C4C4"/>
<path d="M17.9685 11.9371L18.4712 10.9318L21.1361 14.0355L20.4827 14.6872L17.9685 11.9371Z" fill="#C4C4C4"/>
<path d="M15.4555 15.1735C13.7801 13.4082 12.1047 12.8198 13.2216 11.0545C14.897 8.11237 15.4555 7.4623 15.4555 5.75865C15.4555 2.14574 12.7659 0.376963 9.87086 0.376963C6.97581 0.376963 4.28621 2.14574 4.28621 5.75865C4.28621 7.63451 6.06495 9.86169 7.07853 11.0545C10.4293 14.5851 0.935428 16.9388 0.376963 19.2926L0.376963 24" stroke="#C4C4C4" stroke-width="0.75"/>
</svg>
