<svg width="15" height="15" viewBox="0 0 15 15" fill="none" xmlns="http://www.w3.org/2000/svg">
<path fill-rule="evenodd" clip-rule="evenodd" d="M7.08756 8.4463V12.0842C7.08756 12.4467 7.51854 12.6364 7.78577 12.3914L10.2858 10.0997C10.4659 9.93454 10.4659 9.65052 10.2858 9.48532L8.12086 7.50086L10.2858 5.5164C10.4659 5.3512 10.4659 5.06719 10.2858 4.90198L7.78577 2.61032C7.51854 2.36536 7.08756 2.55498 7.08756 2.91753V6.55543L5.05661 4.69365C4.88699 4.53821 4.62342 4.54961 4.46793 4.71929C4.31242 4.88896 4.32389 5.15243 4.49351 5.30807L6.88571 7.50086L4.49351 9.69365C4.32389 9.84929 4.31242 10.1128 4.46793 10.2824C4.62342 10.4521 4.88699 10.4635 5.05661 10.3081L7.08756 8.4463ZM7.92089 6.5538L9.38759 5.20919L7.92089 3.86479V6.5538ZM9.38759 9.79253L7.92089 11.1371V8.44813L9.38759 9.79253Z" fill="#1ED760"/>
</svg>
