<svg width="29" height="22" viewBox="0 0 29 22" fill="none" xmlns="http://www.w3.org/2000/svg">
<path d="M27.1875 18.3333C27.1875 18.8196 26.9965 19.2859 26.6566 19.6297C26.3167 19.9735 25.8557 20.1667 25.375 20.1667H3.625C3.14429 20.1667 2.68328 19.9735 2.34337 19.6297C2.00346 19.2859 1.8125 18.8196 1.8125 18.3333V7.33333C1.8125 6.8471 2.00346 6.38079 2.34337 6.03697C2.68328 5.69315 3.14429 5.5 3.625 5.5H5.74925C7.19062 5.4992 8.5727 4.91957 9.59175 3.8885L11.0961 2.3705C11.4351 2.02756 11.8945 1.83441 12.3739 1.83333H16.6224C17.1031 1.83344 17.564 2.02666 17.9039 2.3705L19.4046 3.8885C19.9096 4.39948 20.5092 4.8048 21.1692 5.08131C21.8291 5.35781 22.5364 5.50009 23.2507 5.5H25.375C25.8557 5.5 26.3167 5.69315 26.6566 6.03697C26.9965 6.38079 27.1875 6.8471 27.1875 7.33333V18.3333ZM3.625 3.66667C2.66359 3.66667 1.74156 4.05298 1.06174 4.74061C0.381919 5.42824 0 6.36087 0 7.33333L0 18.3333C0 19.3058 0.381919 20.2384 1.06174 20.9261C1.74156 21.6137 2.66359 22 3.625 22H25.375C26.3364 22 27.2584 21.6137 27.9383 20.9261C28.6181 20.2384 29 19.3058 29 18.3333V7.33333C29 6.36087 28.6181 5.42824 27.9383 4.74061C27.2584 4.05298 26.3364 3.66667 25.375 3.66667H23.2507C22.2894 3.66646 21.3675 3.28001 20.6879 2.59233L19.1871 1.07433C18.5075 0.386652 17.5856 0.00020767 16.6243 0H12.3758C11.4144 0.00020767 10.4925 0.386652 9.81287 1.07433L8.31213 2.59233C7.63246 3.28001 6.71058 3.66646 5.74925 3.66667H3.625Z" fill="white"/>
<path d="M14.5 16.1429C13.2686 16.1429 12.0877 15.6537 11.217 14.783C10.3463 13.9123 9.85714 12.7314 9.85714 11.5C9.85714 10.2686 10.3463 9.08771 11.217 8.217C12.0877 7.3463 13.2686 6.85714 14.5 6.85714C15.7314 6.85714 16.9123 7.3463 17.783 8.217C18.6537 9.08771 19.1429 10.2686 19.1429 11.5C19.1429 12.7314 18.6537 13.9123 17.783 14.783C16.9123 15.6537 15.7314 16.1429 14.5 16.1429ZM14.5 18C16.2239 18 17.8772 17.3152 19.0962 16.0962C20.3152 14.8772 21 13.2239 21 11.5C21 9.77609 20.3152 8.12279 19.0962 6.90381C17.8772 5.68482 16.2239 5 14.5 5C12.7761 5 11.1228 5.68482 9.90381 6.90381C8.68482 8.12279 8 9.77609 8 11.5C8 13.2239 8.68482 14.8772 9.90381 16.0962C11.1228 17.3152 12.7761 18 14.5 18Z" fill="white"/>
</svg>
