<svg width="21" height="19" viewBox="0 0 21 19" fill="none" xmlns="http://www.w3.org/2000/svg">
<path d="M19.2042 1.78491C18.1286 0.71139 16.6845 0.0769175 15.1582 0.00731183C13.6318 -0.0622939 12.1348 0.438051 10.964 1.40913C10.8293 1.50968 10.667 1.56766 10.4985 1.57548C10.3289 1.57059 10.1653 1.51231 10.0315 1.40913C8.86119 0.437498 7.36428 -0.0632202 5.83802 0.00639588C4.31176 0.0760119 2.86777 0.710871 1.79279 1.78491C0.636636 2.92861 0 4.44958 0 6.0671C0 7.68461 0.636636 9.20558 1.75375 10.3077L8.45345 18.0655C8.7059 18.3585 9.01963 18.5938 9.37297 18.7551C9.72631 18.9164 10.1108 19 10.5 19C10.8892 19 11.2737 18.9164 11.627 18.7551C11.9804 18.5938 12.2941 18.3585 12.5465 18.0655L19.2057 10.3493C19.7761 9.78827 20.2283 9.12095 20.5363 8.38592C20.8443 7.6509 21.0019 6.86276 21 6.0671C21.0013 5.27139 20.8433 4.48331 20.535 3.74833C20.2268 3.01336 19.7745 2.34605 19.2042 1.78491Z" fill="white"/>
</svg>
